<?xml version="1.0" encoding="utf-8" standalone="no"?>
<!DOCTYPE svg PUBLIC "-//W3C//DTD SVG 1.1//EN"
  "http://www.w3.org/Graphics/SVG/1.1/DTD/svg11.dtd">
<svg xmlns:xlink="http://www.w3.org/1999/xlink" width="532.8pt" height="309.6pt" viewBox="0 0 532.8 309.6" xmlns="http://www.w3.org/2000/svg" version="1.1">
 <metadata>
  <rdf:RDF xmlns:dc="http://purl.org/dc/elements/1.1/" xmlns:cc="http://creativecommons.org/ns#" xmlns:rdf="http://www.w3.org/1999/02/22-rdf-syntax-ns#">
   <cc:Work>
    <dc:type rdf:resource="http://purl.org/dc/dcmitype/StillImage"/>
    <dc:format>image/svg+xml</dc:format>
    <dc:creator>
     <cc:Agent>
      <dc:title>Matplotlib v3.10.5, https://matplotlib.org/</dc:title>
     </cc:Agent>
    </dc:creator>
   </cc:Work>
  </rdf:RDF>
 </metadata>
 <defs>
  <style type="text/css">*{stroke-linejoin: round; stroke-linecap: butt}</style>
 </defs>
 <g id="figure_1">
  <g id="patch_1">
   <path d="M 0 309.6 
L 532.8 309.6 
L 532.8 0 
L 0 0 
z
" style="fill: #ffffff"/>
  </g>
  <g id="axes_1">
   <g id="patch_2">
    <path d="M 49.81399 267.94101 
L 525.34601 267.94101 
L 525.34601 3.00024 
L 49.81399 3.00024 
z
" style="fill: #ffffff"/>
   </g>
   <g id="matplotlib.axis_1">
    <g id="xtick_1">
     <g id="line2d_1">
      <defs>
       <path id="m0641565cb5" d="M 0 0 
L 0 3.5 
" style="stroke: #000000; stroke-width: 0.8"/>
      </defs>
      <g>
       <use xlink:href="#m0641565cb5" x="57.609597" y="267.94101" style="stroke: #000000; stroke-width: 0.8"/>
      </g>
     </g>
     <g id="text_1">
      <text style="font-size: 14px; font-family: 'DejaVu Sans'; text-anchor: middle" x="57.609597" y="285.578822" transform="rotate(-0 57.609597 285.578822)">0</text>
     </g>
    </g>
    <g id="xtick_2">
     <g id="line2d_2">
      <g>
       <use xlink:href="#m0641565cb5" x="135.565666" y="267.94101" style="stroke: #000000; stroke-width: 0.8"/>
      </g>
     </g>
     <g id="text_2">
      <text style="font-size: 14px; font-family: 'DejaVu Sans'; text-anchor: middle" x="135.565666" y="285.578822" transform="rotate(-0 135.565666 285.578822)">1</text>
     </g>
    </g>
    <g id="xtick_3">
     <g id="line2d_3">
      <g>
       <use xlink:href="#m0641565cb5" x="213.521735" y="267.94101" style="stroke: #000000; stroke-width: 0.8"/>
      </g>
     </g>
     <g id="text_3">
      <text style="font-size: 14px; font-family: 'DejaVu Sans'; text-anchor: middle" x="213.521735" y="285.578822" transform="rotate(-0 213.521735 285.578822)">2</text>
     </g>
    </g>
    <g id="xtick_4">
     <g id="line2d_4">
      <g>
       <use xlink:href="#m0641565cb5" x="291.477803" y="267.94101" style="stroke: #000000; stroke-width: 0.8"/>
      </g>
     </g>
     <g id="text_4">
      <text style="font-size: 14px; font-family: 'DejaVu Sans'; text-anchor: middle" x="291.477803" y="285.578822" transform="rotate(-0 291.477803 285.578822)">3</text>
     </g>
    </g>
    <g id="xtick_5">
     <g id="line2d_5">
      <g>
       <use xlink:href="#m0641565cb5" x="369.433872" y="267.94101" style="stroke: #000000; stroke-width: 0.8"/>
      </g>
     </g>
     <g id="text_5">
      <text style="font-size: 14px; font-family: 'DejaVu Sans'; text-anchor: middle" x="369.433872" y="285.578822" transform="rotate(-0 369.433872 285.578822)">4</text>
     </g>
    </g>
    <g id="xtick_6">
     <g id="line2d_6">
      <g>
       <use xlink:href="#m0641565cb5" x="447.389941" y="267.94101" style="stroke: #000000; stroke-width: 0.8"/>
      </g>
     </g>
     <g id="text_6">
      <text style="font-size: 14px; font-family: 'DejaVu Sans'; text-anchor: middle" x="447.389941" y="285.578822" transform="rotate(-0 447.389941 285.578822)">5</text>
     </g>
    </g>
    <g id="xtick_7">
     <g id="line2d_7">
      <g>
       <use xlink:href="#m0641565cb5" x="525.34601" y="267.94101" style="stroke: #000000; stroke-width: 0.8"/>
      </g>
     </g>
     <g id="text_7">
      <text style="font-size: 14px; font-family: 'DejaVu Sans'; text-anchor: middle" x="525.34601" y="285.578822" transform="rotate(-0 525.34601 285.578822)">6</text>
     </g>
    </g>
    <g id="text_8">
     <text style="font-size: 14px; font-family: 'DejaVu Sans'; text-anchor: middle" x="287.58" y="303.688197" transform="rotate(-0 287.58 303.688197)">Separació entre localitzacions (km)</text>
    </g>
   </g>
   <g id="matplotlib.axis_2">
    <g id="ytick_1">
     <g id="line2d_8">
      <defs>
       <path id="m5b4e890483" d="M 0 0 
L -3.5 0 
" style="stroke: #000000; stroke-width: 0.8"/>
      </defs>
      <g>
       <use xlink:href="#m5b4e890483" x="49.81399" y="262.942128" style="stroke: #000000; stroke-width: 0.8"/>
      </g>
     </g>
     <g id="text_9">
      <text style="font-size: 14px; font-family: 'DejaVu Sans'; text-anchor: end" x="42.81399" y="268.261034" transform="rotate(-0 42.81399 268.261034)">0.0</text>
     </g>
    </g>
    <g id="ytick_2">
     <g id="line2d_9">
      <g>
       <use xlink:href="#m5b4e890483" x="49.81399" y="212.953303" style="stroke: #000000; stroke-width: 0.8"/>
      </g>
     </g>
     <g id="text_10">
      <text style="font-size: 14px; font-family: 'DejaVu Sans'; text-anchor: end" x="42.81399" y="218.272209" transform="rotate(-0 42.81399 218.272209)">0.5</text>
     </g>
    </g>
    <g id="ytick_3">
     <g id="line2d_10">
      <g>
       <use xlink:href="#m5b4e890483" x="49.81399" y="162.964478" style="stroke: #000000; stroke-width: 0.8"/>
      </g>
     </g>
     <g id="text_11">
      <text style="font-size: 14px; font-family: 'DejaVu Sans'; text-anchor: end" x="42.81399" y="168.283385" transform="rotate(-0 42.81399 168.283385)">1.0</text>
     </g>
    </g>
    <g id="ytick_4">
     <g id="line2d_11">
      <g>
       <use xlink:href="#m5b4e890483" x="49.81399" y="112.975654" style="stroke: #000000; stroke-width: 0.8"/>
      </g>
     </g>
     <g id="text_12">
      <text style="font-size: 14px; font-family: 'DejaVu Sans'; text-anchor: end" x="42.81399" y="118.29456" transform="rotate(-0 42.81399 118.29456)">1.5</text>
     </g>
    </g>
    <g id="ytick_5">
     <g id="line2d_12">
      <g>
       <use xlink:href="#m5b4e890483" x="49.81399" y="62.986829" style="stroke: #000000; stroke-width: 0.8"/>
      </g>
     </g>
     <g id="text_13">
      <text style="font-size: 14px; font-family: 'DejaVu Sans'; text-anchor: end" x="42.81399" y="68.305736" transform="rotate(-0 42.81399 68.305736)">2.0</text>
     </g>
    </g>
    <g id="ytick_6">
     <g id="line2d_13">
      <g>
       <use xlink:href="#m5b4e890483" x="49.81399" y="12.998005" style="stroke: #000000; stroke-width: 0.8"/>
      </g>
     </g>
     <g id="text_14">
      <text style="font-size: 14px; font-family: 'DejaVu Sans'; text-anchor: end" x="42.81399" y="18.316911" transform="rotate(-0 42.81399 18.316911)">2.5</text>
     </g>
    </g>
    <g id="text_15">
     <text style="font-size: 14px; font-family: 'DejaVu Sans'; text-anchor: middle" x="13.638053" y="135.470625" transform="rotate(-90 13.638053 135.470625)">Semivariància (°C²)</text>
    </g>
   </g>
   <g id="line2d_14">
    <path d="M 57.617392 242.939849 
L 93.95721 211.62375 
L 113.885497 194.758658 
L 130.297027 181.162341 
L 144.364053 169.782827 
L 157.258827 159.618926 
L 170.153601 149.750056 
L 181.876123 141.066501 
L 192.426393 133.510457 
L 202.976662 126.221614 
L 213.526932 119.220883 
L 222.904949 113.256785 
L 232.282966 107.551539 
L 241.660984 102.119829 
L 249.866749 97.603014 
L 258.072514 93.316707 
L 266.27828 89.270748 
L 274.484045 85.474974 
L 282.68981 81.939224 
L 290.895575 78.673337 
L 297.929088 76.096251 
L 304.962601 73.730856 
L 311.996114 71.583346 
L 319.029627 69.659917 
L 326.06314 67.966765 
L 333.096653 66.510086 
L 340.130166 65.296074 
L 347.16368 64.330927 
L 354.197193 63.620839 
L 361.230706 63.172005 
L 367.091966 63.002017 
L 379.98674 62.986829 
L 525.34601 62.986829 
L 525.34601 62.986829 
" clip-path="url(#p1fec27c0b7)" style="fill: none; stroke: #003366; stroke-width: 3; stroke-linecap: square"/>
   </g>
   <g id="line2d_15">
    <path d="M 57.609597 262.942128 
L 57.609597 242.946598 
" clip-path="url(#p1fec27c0b7)" style="fill: none; stroke-dasharray: 2,3.3; stroke-dashoffset: 0; stroke: #990000; stroke-width: 2"/>
   </g>
   <g id="line2d_16">
    <path d="M 49.81399 62.986829 
L 525.34601 62.986829 
" clip-path="url(#p1fec27c0b7)" style="fill: none; stroke-dasharray: 3.7,1.6; stroke-dashoffset: 0; stroke: #666666"/>
   </g>
   <g id="LineCollection_1">
    <path d="M 369.433872 262.942128 
L 369.433872 62.986829 
" clip-path="url(#p1fec27c0b7)" style="fill: none; stroke-dasharray: 5.55,2.4; stroke-dashoffset: 0; stroke: #39734d; stroke-width: 1.5"/>
   </g>
   <g id="patch_3">
    <path d="M 49.81399 267.94101 
L 49.81399 3.00024 
" style="fill: none; stroke: #000000; stroke-width: 0.8; stroke-linejoin: miter; stroke-linecap: square"/>
   </g>
   <g id="patch_4">
    <path d="M 49.81399 267.94101 
L 525.34601 267.94101 
" style="fill: none; stroke: #000000; stroke-width: 0.8; stroke-linejoin: miter; stroke-linecap: square"/>
   </g>
   <g id="patch_5">
    <path d="M 406.194316 30.99955 
Q 429.851184 46.445556 452.571895 61.280327 
" style="fill: none; stroke: #666666; stroke-linecap: round"/>
    <path d="M 449.413648 55.874268 
L 452.571895 61.280327 
L 446.352099 60.563289 
" style="fill: none; stroke: #666666; stroke-linecap: round"/>
   </g>
   <g id="text_16">
    <text style="font-size: 14px; font-family: 'DejaVu Sans'; text-anchor: start" x="326.558034" y="24.995323" transform="rotate(-0 326.558034 24.995323)">Llindar total: 2 °C²</text>
   </g>
   <g id="patch_6">
    <path d="M 118.525485 225.415842 
Q 89.028647 233.904627 60.606235 242.084206 
" style="fill: none; stroke: #990000; stroke-linecap: round"/>
    <path d="M 66.762186 243.226251 
L 60.606235 242.084206 
L 65.213441 237.844673 
" style="fill: none; stroke: #990000; stroke-linecap: round"/>
   </g>
   <g id="text_17">
    <text style="font-size: 14px; font-family: 'DejaVu Sans'; text-anchor: start; fill: #990000" x="100.485435" y="219.951738" transform="rotate(-0 100.485435 219.951738)">Llavor: 0,2 °C²</text>
   </g>
   <g id="text_18">
    <text style="font-size: 14px; font-family: 'DejaVu Sans'; text-anchor: start; fill: #39734d" x="369.433872" y="249.945033" transform="rotate(-0 369.433872 249.945033)">Abast: 4 km</text>
   </g>
   <g id="PathCollection_1">
    <defs>
     <path id="m213ef113e4" d="M 0 2.95804 
C 0.784481 2.95804 1.536938 2.646362 2.09165 2.09165 
C 2.646362 1.536938 2.95804 0.784481 2.95804 0 
C 2.95804 -0.784481 2.646362 -1.536938 2.09165 -2.09165 
C 1.536938 -2.646362 0.784481 -2.95804 0 -2.95804 
C -0.784481 -2.95804 -1.536938 -2.646362 -2.09165 -2.09165 
C -2.646362 -1.536938 -2.95804 -0.784481 -2.95804 0 
C -2.95804 0.784481 -2.646362 1.536938 -2.09165 2.09165 
C -1.536938 2.646362 -0.784481 2.95804 0 2.95804 
z
" style="stroke: #003366"/>
    </defs>
    <g clip-path="url(#p1fec27c0b7)">
     <use xlink:href="#m213ef113e4" x="57.609597" y="262.942128" style="fill: #003366; stroke: #003366"/>
    </g>
   </g>
   <g id="PathCollection_2">
    <defs>
     <path id="m516d8b5b84" d="M 0 3.162278 
C 0.838646 3.162278 1.643056 2.82908 2.236068 2.236068 
C 2.82908 1.643056 3.162278 0.838646 3.162278 0 
C 3.162278 -0.838646 2.82908 -1.643056 2.236068 -2.236068 
C 1.643056 -2.82908 0.838646 -3.162278 0 -3.162278 
C -0.838646 -3.162278 -1.643056 -2.82908 -2.236068 -2.236068 
C -2.82908 -1.643056 -3.162278 -0.838646 -3.162278 0 
C -3.162278 0.838646 -2.82908 1.643056 -2.236068 2.236068 
C -1.643056 2.82908 -0.838646 3.162278 0 3.162278 
z
" style="stroke: #003366"/>
    </defs>
    <g clip-path="url(#p1fec27c0b7)">
     <use xlink:href="#m516d8b5b84" x="57.609597" y="242.946598" style="fill: #ffffff; stroke: #003366"/>
    </g>
   </g>
  </g>
 </g>
 <defs>
  <clipPath id="p1fec27c0b7">
   <rect x="49.81399" y="3.00024" width="475.53202" height="264.94077"/>
  </clipPath>
 </defs>
</svg>
